<svg xmlns="http://www.w3.org/2000/svg" width="1024" height="1024" viewBox="0 0 1024 1024">
  <defs>
    <linearGradient id="bg" x1="0" y1="0" x2="1" y2="1">
      <stop offset="0%" stop-color="#090a1a"/>
      <stop offset="45%" stop-color="#12163a"/>
      <stop offset="100%" stop-color="#2b0d4a"/>
    </linearGradient>
    <radialGradient id="vignette" cx="50%" cy="40%" r="70%">
      <stop offset="0%" stop-color="#000" stop-opacity="0"/>
      <stop offset="100%" stop-color="#000" stop-opacity="0.45"/>
    </radialGradient>
    <radialGradient id="nebula1" cx="50%" cy="35%" r="40%">
      <stop offset="0%" stop-color="#7a4cff" stop-opacity="0.55"/>
      <stop offset="100%" stop-color="#7a4cff" stop-opacity="0"/>
    </radialGradient>
    <radialGradient id="nebula2" cx="65%" cy="60%" r="38%">
      <stop offset="0%" stop-color="#00c2ff" stop-opacity="0.35"/>
      <stop offset="100%" stop-color="#00c2ff" stop-opacity="0"/>
    </radialGradient>
    <filter id="softGlow" x="-50%" y="-50%" width="200%" height="200%">
      <feGaussianBlur in="SourceGraphic" stdDeviation="2.2" result="blur"/>
      <feMerge>
        <feMergeNode in="blur"/>
        <feMergeNode in="SourceGraphic"/>
      </feMerge>
    </filter>
    <filter id="ribbonBlur" x="-100%" y="-100%" width="300%" height="300%">
      <feGaussianBlur stdDeviation="20"/>
    </filter>
    <linearGradient id="moonGrad" x1="0" y1="0" x2="1" y2="1">
      <stop offset="0%" stop-color="#fff"/>
      <stop offset="100%" stop-color="#c4bbff"/>
    </linearGradient>
    <linearGradient id="ringIridescent" x1="0" y1="0" x2="1" y2="1">
      <stop offset="0%" stop-color="#bda9ff"/>
      <stop offset="50%" stop-color="#00d1ff"/>
      <stop offset="100%" stop-color="#ff66ff"/>
    </linearGradient>
    <linearGradient id="ribbon1" x1="0" y1="0" x2="1" y2="0" gradientTransform="rotate(25)">
      <stop offset="0%" stop-color="#7a4cff" stop-opacity="0"/>
      <stop offset="50%" stop-color="#7a4cff" stop-opacity="0.35"/>
      <stop offset="100%" stop-color="#00c2ff" stop-opacity="0"/>
    </linearGradient>
    <linearGradient id="ribbon2" x1="0" y1="0" x2="1" y2="0" gradientTransform="rotate(-20)">
      <stop offset="0%" stop-color="#00c2ff" stop-opacity="0"/>
      <stop offset="50%" stop-color="#00c2ff" stop-opacity="0.3"/>
      <stop offset="100%" stop-color="#b400ff" stop-opacity="0"/>
    </linearGradient>
    <radialGradient id="lensFlare" cx="50%" cy="50%" r="50%">
      <stop offset="0%" stop-color="#ffffff" stop-opacity="0.7"/>
      <stop offset="100%" stop-color="#ffffff" stop-opacity="0"/>
    </radialGradient>
  </defs>

  <!-- Background -->
  <rect width="1024" height="1024" fill="url(#bg)"/>
  <circle cx="512" cy="420" r="360" fill="url(#nebula1)"/>
  <circle cx="690" cy="640" r="300" fill="url(#nebula2)"/>
  <rect width="1024" height="1024" fill="url(#vignette)"/>

  <!-- Aurora ribbons -->
  <g filter="url(#ribbonBlur)">
    <rect x="-100" y="280" width="1224" height="120" fill="url(#ribbon1)" transform="rotate(-12 512 340)"/>
    <rect x="-120" y="640" width="1264" height="100" fill="url(#ribbon2)" transform="rotate(10 512 690)"/>
  </g>

  <!-- Stars -->
  <g fill="#ffffff" filter="url(#softGlow)">
    <circle cx="180" cy="220" r="1.6" opacity="0.9"/>
    <circle cx="240" cy="340" r="1.1" opacity="0.8"/>
    <circle cx="320" cy="180" r="1.4" opacity="0.9"/>
    <circle cx="420" cy="260" r="1.2" opacity="0.7"/>
    <circle cx="520" cy="180" r="1.8" opacity="0.9"/>
    <circle cx="780" cy="220" r="1.3" opacity="0.8"/>
    <circle cx="860" cy="360" r="1.5" opacity="0.85"/>
    <circle cx="720" cy="460" r="1.1" opacity="0.75"/>
    <circle cx="280" cy="560" r="1.3" opacity="0.8"/>
    <circle cx="180" cy="700" r="1.2" opacity="0.85"/>
    <circle cx="380" cy="760" r="1.5" opacity="0.9"/>
    <circle cx="640" cy="780" r="1.2" opacity="0.75"/>
    <circle cx="820" cy="680" r="1.4" opacity="0.8"/>
    <circle cx="900" cy="820" r="1.1" opacity="0.7"/>
  </g>

  <!-- Zodiac ring -->
  <g transform="translate(512 512)">
    <circle r="318" fill="none" stroke="url(#ringIridescent)" stroke-width="8" stroke-opacity="0.9"/>
    <circle r="268" fill="none" stroke="#b5a4ff" stroke-width="2" stroke-opacity="0.4"/>
    <!-- 12 ticks -->
    <g stroke="#e5dfff" stroke-width="3" stroke-linecap="round" opacity="0.9">
      <line x1="0" y1="-310" x2="0" y2="-280"/>
      <g transform="rotate(30)"><line x1="0" y1="-310" x2="0" y2="-280"/></g>
      <g transform="rotate(60)"><line x1="0" y1="-310" x2="0" y2="-280"/></g>
      <g transform="rotate(90)"><line x1="0" y1="-310" x2="0" y2="-280"/></g>
      <g transform="rotate(120)"><line x1="0" y1="-310" x2="0" y2="-280"/></g>
      <g transform="rotate(150)"><line x1="0" y1="-310" x2="0" y2="-280"/></g>
      <g transform="rotate(180)"><line x1="0" y1="-310" x2="0" y2="-280"/></g>
      <g transform="rotate(210)"><line x1="0" y1="-310" x2="0" y2="-280"/></g>
      <g transform="rotate(240)"><line x1="0" y1="-310" x2="0" y2="-280"/></g>
      <g transform="rotate(270)"><line x1="0" y1="-310" x2="0" y2="-280"/></g>
      <g transform="rotate(300)"><line x1="0" y1="-310" x2="0" y2="-280"/></g>
      <g transform="rotate(330)"><line x1="0" y1="-310" x2="0" y2="-280"/></g>
    </g>
  </g>

  <!-- Crescent moon (center) -->
  <g transform="translate(512 520)">
    <defs>
      <mask id="crescentMask">
        <rect x="-512" y="-512" width="1024" height="1024" fill="black"/>
        <circle cx="0" cy="0" r="120" fill="white"/>
        <circle cx="35" cy="-5" r="115" fill="black"/>
      </mask>
    </defs>
    <circle r="120" fill="url(#moonGrad)" mask="url(#crescentMask)"/>
    <circle r="120" fill="none" stroke="#ffffff" stroke-opacity="0.5" stroke-width="1.5"/>
    <!-- lens flare highlights -->
    <circle cx="-70" cy="-55" r="12" fill="url(#lensFlare)"/>
    <circle cx="90" cy="15" r="8" fill="url(#lensFlare)"/>
  </g>

  <!-- Subtle sparkles around the moon -->
  <g fill="#ffffff" opacity="0.9" filter="url(#softGlow)">
    <circle cx="432" cy="460" r="1.2"/>
    <circle cx="592" cy="448" r="1.2"/>
    <circle cx="600" cy="608" r="1.2"/>
    <circle cx="430" cy="620" r="1.2"/>
    <!-- extra sparkles -->
    <circle cx="300" cy="420" r="1.4"/>
    <circle cx="720" cy="560" r="1.5"/>
    <circle cx="820" cy="740" r="1.3"/>
  </g>

  <!-- Additional shooting stars -->
  <g opacity="0.85" filter="url(#softGlow)">
    <line x1="180" y1="300" x2="340" y2="250" stroke="#e8f3ff" stroke-width="2.5"/>
    <circle cx="345" cy="248" r="2.2" fill="#ffffff"/>
    <line x1="760" y1="760" x2="880" y2="720" stroke="#ffd6ff" stroke-width="2.5"/>
    <circle cx="884" cy="718" r="2.2" fill="#ffffff"/>
  </g>
</svg>

