<svg xmlns="http://www.w3.org/2000/svg" width="512" height="512" viewBox="0 0 512 512">
  <defs>
    <linearGradient id="bg" x1="0" y1="0" x2="1" y2="1">
      <stop offset="0%" stop-color="#0b0c22"/>
      <stop offset="100%" stop-color="#120f2c"/>
    </linearGradient>
    <radialGradient id="glow1" cx="30%" cy="20%" r="50%">
      <stop offset="0%" stop-color="#6e48ff" stop-opacity="0.25"/>
      <stop offset="100%" stop-color="#6e48ff" stop-opacity="0"/>
    </radialGradient>
    <radialGradient id="glow2" cx="70%" cy="70%" r="45%">
      <stop offset="0%" stop-color="#00d1ff" stop-opacity="0.2"/>
      <stop offset="100%" stop-color="#00d1ff" stop-opacity="0"/>
    </radialGradient>
    <filter id="twinkle">
      <feGaussianBlur stdDeviation="0.8"/>
    </filter>
  </defs>
  <rect width="512" height="512" fill="url(#bg)"/>
  <rect width="512" height="512" fill="url(#glow1)"/>
  <rect width="512" height="512" fill="url(#glow2)"/>

  <!-- small stars grid-like randomization -->
  <g fill="#ffffff" opacity="0.85">
    <circle cx="40" cy="40" r="1"/>
    <circle cx="120" cy="32" r="1"/>
    <circle cx="200" cy="60" r="1"/>
    <circle cx="300" cy="30" r="1"/>
    <circle cx="380" cy="50" r="1"/>
    <circle cx="460" cy="40" r="1"/>

    <circle cx="80" cy="120" r="1"/>
    <circle cx="160" cy="140" r="1"/>
    <circle cx="240" cy="110" r="1"/>
    <circle cx="320" cy="140" r="1"/>
    <circle cx="400" cy="120" r="1"/>
    <circle cx="480" cy="150" r="1"/>

    <circle cx="50" cy="220" r="1"/>
    <circle cx="140" cy="200" r="1"/>
    <circle cx="220" cy="240" r="1"/>
    <circle cx="300" cy="220" r="1"/>
    <circle cx="380" cy="240" r="1"/>
    <circle cx="460" cy="210" r="1"/>

    <circle cx="60" cy="320" r="1"/>
    <circle cx="140" cy="340" r="1"/>
    <circle cx="220" cy="310" r="1"/>
    <circle cx="300" cy="340" r="1"/>
    <circle cx="380" cy="320" r="1"/>
    <circle cx="460" cy="350" r="1"/>

    <circle cx="40" cy="420" r="1"/>
    <circle cx="120" cy="440" r="1"/>
    <circle cx="200" cy="410" r="1"/>
    <circle cx="300" cy="440" r="1"/>
    <circle cx="380" cy="420" r="1"/>
    <circle cx="460" cy="450" r="1"/>
  </g>

  <!-- brighter twinkles -->
  <g fill="#ffffff" opacity="1" filter="url(#twinkle)">
    <circle cx="96" cy="96" r="1.9"/>
    <circle cx="256" cy="196" r="1.9"/>
    <circle cx="416" cy="96" r="1.9"/>
    <circle cx="156" cy="316" r="1.9"/>
    <circle cx="356" cy="356" r="1.9"/>
  </g>
</svg>


