<svg xmlns="http://www.w3.org/2000/svg" width="1242" height="2688" viewBox="0 0 1242 2688">
  <defs>
    <linearGradient id="night" x1="0" y1="0" x2="0" y2="1">
      <stop offset="0%" stop-color="#0a0b1f"/>
      <stop offset="50%" stop-color="#141a3b"/>
      <stop offset="100%" stop-color="#000000"/>
    </linearGradient>
    <radialGradient id="aurora1" cx="30%" cy="20%" r="40%">
      <stop offset="0%" stop-color="#6d46ff" stop-opacity="0.5"/>
      <stop offset="100%" stop-color="#6d46ff" stop-opacity="0"/>
    </radialGradient>
    <radialGradient id="aurora2" cx="70%" cy="45%" r="45%">
      <stop offset="0%" stop-color="#00c8ff" stop-opacity="0.35"/>
      <stop offset="100%" stop-color="#00c8ff" stop-opacity="0"/>
    </radialGradient>
    <radialGradient id="aurora3" cx="50%" cy="70%" r="45%">
      <stop offset="0%" stop-color="#b400ff" stop-opacity="0.25"/>
      <stop offset="100%" stop-color="#b400ff" stop-opacity="0"/>
    </radialGradient>
    <radialGradient id="vignette" cx="50%" cy="50%" r="80%">
      <stop offset="60%" stop-color="#000" stop-opacity="0"/>
      <stop offset="100%" stop-color="#000" stop-opacity="0.5"/>
    </radialGradient>
    <filter id="softGlow">
      <feGaussianBlur stdDeviation="1.8"/>
    </filter>
    <filter id="ribbonBlur">
      <feGaussianBlur stdDeviation="18"/>
    </filter>
    <linearGradient id="ribbonA" x1="0" y1="0" x2="1" y2="0" gradientTransform="rotate(20)">
      <stop offset="0%" stop-color="#7a4cff" stop-opacity="0"/>
      <stop offset="50%" stop-color="#7a4cff" stop-opacity="0.35"/>
      <stop offset="100%" stop-color="#00c8ff" stop-opacity="0"/>
    </linearGradient>
    <linearGradient id="ribbonB" x1="0" y1="0" x2="1" y2="0" gradientTransform="rotate(-15)">
      <stop offset="0%" stop-color="#00c8ff" stop-opacity="0"/>
      <stop offset="50%" stop-color="#00c8ff" stop-opacity="0.3"/>
      <stop offset="100%" stop-color="#b400ff" stop-opacity="0"/>
    </linearGradient>
  </defs>

  <rect width="1242" height="2688" fill="url(#night)"/>
  <rect width="1242" height="2688" fill="url(#aurora1)"/>
  <rect width="1242" height="2688" fill="url(#aurora2)"/>
  <rect width="1242" height="2688" fill="url(#aurora3)"/>
  <rect width="1242" height="2688" fill="url(#vignette)"/>

  <!-- Aurora ribbons -->
  <g filter="url(#ribbonBlur)">
    <rect x="-200" y="520" width="1642" height="140" fill="url(#ribbonA)" transform="rotate(-10 621 590)"/>
    <rect x="-260" y="1240" width="1762" height="120" fill="url(#ribbonB)" transform="rotate(8 621 1300)"/>
    <rect x="-220" y="1860" width="1682" height="120" fill="url(#ribbonA)" transform="rotate(-6 621 1920)"/>
  </g>

  <!-- Horizon glow -->
  <ellipse cx="621" cy="2100" rx="700" ry="260" fill="#6d46ff" opacity="0.15" filter="url(#softGlow)"/>
  <ellipse cx="621" cy="2150" rx="480" ry="160" fill="#00c8ff" opacity="0.12" filter="url(#softGlow)"/>

  <!-- Stars -->
  <g fill="#ffffff" opacity="0.9">
    <!-- random scatter -->
    <circle cx="120" cy="180" r="1.4"/>
    <circle cx="320" cy="220" r="1.1"/>
    <circle cx="560" cy="160" r="1.3"/>
    <circle cx="880" cy="200" r="1.2"/>
    <circle cx="1120" cy="240" r="1.5"/>
    <circle cx="220" cy="520" r="1.2"/>
    <circle cx="480" cy="620" r="1.4"/>
    <circle cx="820" cy="560" r="1.2"/>
    <circle cx="1040" cy="620" r="1.3"/>
    <circle cx="300" cy="900" r="1.2"/>
    <circle cx="600" cy="980" r="1.3"/>
    <circle cx="960" cy="920" r="1.1"/>
    <circle cx="200" cy="1260" r="1.3"/>
    <circle cx="540" cy="1320" r="1.4"/>
    <circle cx="900" cy="1280" r="1.2"/>
    <circle cx="180" cy="1640" r="1.2"/>
    <circle cx="540" cy="1700" r="1.1"/>
    <circle cx="960" cy="1660" r="1.3"/>
  </g>

  <!-- Center piece: enhanced constellation lines -->
  <g stroke="#e9e5ff" stroke-opacity="0.75" stroke-width="3.2">
    <line x1="420" y1="980" x2="560" y2="900"/>
    <line x1="560" y1="900" x2="700" y2="980"/>
    <line x1="700" y1="980" x2="780" y2="860"/>
    <line x1="560" y1="900" x2="620" y2="780"/>
    <line x1="700" y1="980" x2="860" y2="960"/>
  </g>

  <!-- Constellation nodes -->
  <g fill="#ffffff">
    <circle cx="420" cy="980" r="3"/>
    <circle cx="560" cy="900" r="3"/>
    <circle cx="700" cy="980" r="3"/>
    <circle cx="780" cy="860" r="3"/>
    <circle cx="620" cy="780" r="3"/>
    <circle cx="860" cy="960" r="3"/>
  </g>

  <!-- Shooting stars -->
  <g opacity="0.9">
    <line x1="220" y1="420" x2="480" y2="350" stroke="#cbbaff" stroke-width="3" filter="url(#softGlow)"/>
    <circle cx="485" cy="349" r="2.2" fill="#fff"/>
    <line x1="900" y1="620" x2="1120" y2="560" stroke="#d6f4ff" stroke-width="3" filter="url(#softGlow)"/>
    <circle cx="1124" cy="559" r="2.2" fill="#fff"/>
    <line x1="420" y1="1640" x2="680" y2="1570" stroke="#ffd6ff" stroke-width="3" filter="url(#softGlow)"/>
    <circle cx="684" cy="1569" r="2.2" fill="#fff"/>
  </g>
</svg>


